<svg width="43" height="64" viewBox="0 0 43 64" fill="none" xmlns="http://www.w3.org/2000/svg">
<path fill-rule="evenodd" clip-rule="evenodd" d="M14.9848 2.60608C13.9065 2.60608 13.0321 3.47933 13.0303 4.55725V14.3333C13.0303 15.053 12.4469 15.6364 11.7273 15.6364C11.0076 15.6364 10.4242 15.053 10.4242 14.3333L10.4242 11.7273V4.56062C10.4242 3.48116 9.54916 2.60608 8.4697 2.60608C7.39023 2.60608 6.51515 3.48116 6.51515 4.56062V11.7273V14.3334C6.51515 15.053 5.93177 15.6364 5.21212 15.6364C4.49248 15.6364 3.90909 15.053 3.90909 14.3334V11.7273V4.56063C3.90909 3.48116 3.03401 2.60608 1.95455 2.60608C0.87508 2.60608 0 3.48117 0 4.56063V11.7273V12.3788V20.4546C0 22.1114 1.34314 23.4546 3 23.4546H5.21212V60.8485C5.21212 62.5054 6.55527 63.8485 8.21212 63.8485H8.72727C10.3841 63.8485 11.7273 62.5054 11.7273 60.8485V23.4546H13.9394C15.5962 23.4546 16.9394 22.1114 16.9394 20.4546V12.3788V11.7273V4.56062C16.9394 3.48116 16.0643 2.60608 14.9848 2.60608Z" fill="black"/>
<path fill-rule="evenodd" clip-rule="evenodd" d="M42.2671 0C36.1951 0 31.2727 4.92233 31.2727 10.9943V34.1818C31.2727 34.7341 31.7205 35.1818 32.2727 35.1818H36.4849V60.8485C36.4849 62.5054 37.828 63.8485 39.4849 63.8485H40C41.6569 63.8485 43 62.5054 43 60.8485V32.1842C43 32.1834 43 32.1826 43 32.1818L43 22.5455L43 0.732955C43 0.328155 42.6719 0 42.2671 0Z" fill="black"/>
</svg>
