<svg width="36" height="67" viewBox="0 0 36 67" fill="none" xmlns="http://www.w3.org/2000/svg">
<path fill-rule="evenodd" clip-rule="evenodd" d="M32.2421 25.4302L32.7745 24.1533C33.5634 22.2617 34 20.1844 34 18C34 9.16344 26.8366 2 18 2C9.16344 2 2 9.16344 2 18C2 20.1844 2.43662 22.2617 3.22546 24.1533L3.75795 25.4302L2.75094 26.3789C2.11034 26.9823 2 27.4101 2 27.6429C2 27.8948 2.13389 28.3868 2.93465 29.0716C3.72957 29.7514 4.9933 30.4446 6.7143 31.0447L6.95063 31.1272L7.15937 31.2653C9.58349 32.8692 13.4722 34 18 34C22.5278 34 26.4165 32.8692 28.8406 31.2653L29.0494 31.1272L29.2857 31.0447C31.0067 30.4446 32.2704 29.7514 33.0653 29.0716C33.8661 28.3868 34 27.8948 34 27.6429C34 27.4101 33.8897 26.9823 33.2491 26.3789L32.2421 25.4302ZM34.6205 24.9231C35.5092 25.7603 36 26.6791 36 27.6429C36 29.7477 33.6591 31.6378 29.9442 32.9332C27.1148 34.8053 22.815 36 18 36C13.185 36 8.88518 34.8053 6.05578 32.9332C2.34092 31.6378 0 29.7477 0 27.6429C0 26.6791 0.490788 25.7603 1.37953 24.9231C0.490788 22.7919 0 20.4533 0 18C0 8.05887 8.05887 0 18 0C27.9411 0 36 8.05887 36 18C36 20.4533 35.5092 22.7919 34.6205 24.9231Z" fill="black"/>
<path fill-rule="evenodd" clip-rule="evenodd" d="M4.34956 32.8643C4.27339 32.6427 4.23833 32.4195 4.2394 32.2017C4.79946 32.4624 5.40663 32.7069 6.05575 32.9332C8.87919 34.8013 13.1669 35.995 17.9695 36L18 36L18.0304 36C22.8331 35.995 27.1208 34.8013 29.9442 32.9332C30.0966 32.8801 30.2467 32.8259 30.3944 32.7708C30.3853 32.802 30.3754 32.8332 30.3647 32.8643L19.2485 65.2105C18.63 67.0105 16.0843 67.0105 15.4657 65.2106L4.34956 32.8643ZM13.7666 48.5279C13.5588 48.3461 13.5377 48.0302 13.7195 47.8224L15.1742 46.1599L13.7893 44.775C13.594 44.5797 13.594 44.2631 13.7893 44.0678C13.9845 43.8726 14.3011 43.8726 14.4964 44.0678L15.8342 45.4056L18.7742 42.0456L16.3607 39.6321C16.1655 39.4368 16.1655 39.1203 16.3607 38.925C16.556 38.7297 16.8726 38.7297 17.0678 38.925L19.4342 41.2913L22.061 38.2892C22.2429 38.0814 22.5588 38.0603 22.7666 38.2422C22.9744 38.424 22.9955 38.7399 22.8136 38.9477L20.1429 42L22.5199 44.377L23.3467 43.4321C23.5286 43.2243 23.8445 43.2032 24.0523 43.385C24.2601 43.5669 24.2812 43.8828 24.0993 44.0906L23.2286 45.0857L24.075 45.9322C24.2703 46.1274 24.2703 46.444 24.075 46.6393C23.8798 46.8345 23.5632 46.8345 23.3679 46.6393L22.5686 45.84L19.6286 49.2L21.5035 51.075C21.6988 51.2703 21.6988 51.5869 21.5035 51.7821C21.3083 51.9774 20.9917 51.9774 20.7964 51.7821L18.9686 49.9543L15.7578 53.6237C15.576 53.8315 15.2601 53.8526 15.0523 53.6708C14.8445 53.4889 14.8234 53.173 15.0052 52.9652L18.2599 49.2456L15.8829 46.8686L14.4721 48.4809C14.2903 48.6887 13.9744 48.7097 13.7666 48.5279ZM16.5428 46.1143L19.4829 42.7543L21.8599 45.1313L18.9199 48.4914L16.5428 46.1143Z" fill="black"/>
</svg>
