<svg width="40" height="55" viewBox="0 0 40 55" fill="none" xmlns="http://www.w3.org/2000/svg">
<path d="M30.1765 20.1176H35C36.6568 20.1176 38 21.4608 38 23.1176V38.3529C38 40.0098 36.6568 41.3529 35 41.3529H30.1765" stroke="black" stroke-width="4" stroke-linejoin="round"/>
<path fill-rule="evenodd" clip-rule="evenodd" d="M13.7886 5.44159L12.7013 5.36688C12.567 5.35765 12.4313 5.35294 12.2941 5.35294C9.97051 5.35294 7.96072 6.71375 7.02573 8.6907L6.52262 9.75449L5.34837 9.83135C3.47946 9.95368 2 11.5108 2 13.4118C2 15.3935 3.60651 17 5.58824 17C6.31376 17 6.98339 16.7868 7.54522 16.4201L8.5324 15.7759L9.57415 16.3275C10.3839 16.7563 11.3076 17 12.2941 17C12.707 17 13.1078 16.9573 13.493 16.8769L15.1526 16.5302L15.7663 18.1107C16.5311 20.0801 18.4438 21.4706 20.6765 21.4706C21.7021 21.4706 22.6602 21.1772 23.4706 20.669V22.9138V25.1471C23.4706 26.073 24.2212 26.8235 25.147 26.8235C26.0729 26.8235 26.8235 26.073 26.8235 25.1471L26.8235 20.0793V17.0002L27.3838 17C29.6735 16.9993 31.5294 15.1428 31.5294 12.8529C31.5294 10.6526 29.8146 8.85112 27.6499 8.7143L26.1184 8.61751L25.8154 7.11318C25.2279 4.19613 22.6476 2 19.5588 2C17.4657 2 15.6079 3.00549 14.4408 4.5683L13.7886 5.44159ZM31.2941 17.5949C32.6593 16.4675 33.5294 14.7618 33.5294 12.8529C33.5294 9.59025 30.9875 6.92126 27.776 6.71829C27.0041 2.886 23.6185 0 19.5588 0C16.8081 0 14.3668 1.325 12.8384 3.37158C12.6586 3.35922 12.4771 3.35294 12.2941 3.35294C9.16845 3.35294 6.4709 5.18593 5.21774 7.83562C2.30417 8.02632 0 10.45 0 13.4118C0 15.24 0.877966 16.8632 2.23529 17.8828V51.7647C2.23529 53.4216 3.57843 54.7647 5.23529 54.7647H28.2941C29.951 54.7647 31.2941 53.4216 31.2941 51.7647V17.5949Z" fill="black"/>
</svg>
