<svg width="133" height="133" viewBox="0 0 133 133" fill="none" xmlns="http://www.w3.org/2000/svg">
<rect width="133" height="133" fill="#979797"/>
<path fill-rule="evenodd" clip-rule="evenodd" d="M59.9848 48.6061C58.9065 48.6061 58.0321 49.4793 58.0303 50.5572V60.3333C58.0303 61.053 57.4469 61.6364 56.7273 61.6364C56.0076 61.6364 55.4242 61.053 55.4242 60.3333L55.4242 57.7273V50.5606C55.4242 49.4812 54.5492 48.6061 53.4697 48.6061C52.3902 48.6061 51.5152 49.4812 51.5152 50.5606V57.7273V60.3334C51.5152 61.053 50.9318 61.6364 50.2121 61.6364C49.4925 61.6364 48.9091 61.053 48.9091 60.3334V57.7273V50.5606C48.9091 49.4812 48.034 48.6061 46.9545 48.6061C45.8751 48.6061 45 49.4812 45 50.5606V57.7273V58.3788V66.4546C45 68.1114 46.3431 69.4546 48 69.4546H50.2121V106.848C50.2121 108.505 51.5553 109.848 53.2121 109.848H53.7273C55.3841 109.848 56.7273 108.505 56.7273 106.848V69.4546H58.9394C60.5962 69.4546 61.9394 68.1114 61.9394 66.4546V58.3788V57.7273V50.5606C61.9394 49.4812 61.0643 48.6061 59.9848 48.6061Z" fill="white"/>
<path fill-rule="evenodd" clip-rule="evenodd" d="M87.267 46C81.195 46 76.2727 50.9223 76.2727 56.9943V80.1818C76.2727 80.7341 76.7204 81.1818 77.2727 81.1818H81.4848V106.848C81.4848 108.505 82.828 109.848 84.4848 109.848H85C86.6568 109.848 88 108.505 88 106.848V78.1842C88 78.1834 88 78.1826 88 78.1818L88 68.5455L88 46.733C88 46.3282 87.6718 46 87.267 46Z" fill="white"/>
<path d="M34.6003 17.4545V32H31.944L25.6159 22.8452H25.5094V32H22.4341V17.4545H25.1329L31.4114 26.6023H31.5392V17.4545H34.6003Z" fill="white"/>
<path d="M42.0133 32.2131C40.9101 32.2131 39.956 31.9787 39.1511 31.5099C38.3509 31.0364 37.733 30.3783 37.2974 29.5355C36.8618 28.688 36.644 27.7055 36.644 26.5881C36.644 25.4612 36.8618 24.4763 37.2974 23.6335C37.733 22.786 38.3509 22.1278 39.1511 21.6591C39.956 21.1856 40.9101 20.9488 42.0133 20.9488C43.1165 20.9488 44.0682 21.1856 44.8684 21.6591C45.6733 22.1278 46.2936 22.786 46.7292 23.6335C47.1648 24.4763 47.3826 25.4612 47.3826 26.5881C47.3826 27.7055 47.1648 28.688 46.7292 29.5355C46.2936 30.3783 45.6733 31.0364 44.8684 31.5099C44.0682 31.9787 43.1165 32.2131 42.0133 32.2131ZM42.0275 29.8693C42.5294 29.8693 42.9484 29.7273 43.2846 29.4432C43.6208 29.1543 43.8741 28.7613 44.0445 28.2642C44.2197 27.767 44.3073 27.2012 44.3073 26.5667C44.3073 25.9323 44.2197 25.3665 44.0445 24.8693C43.8741 24.3721 43.6208 23.9792 43.2846 23.6903C42.9484 23.4015 42.5294 23.2571 42.0275 23.2571C41.5208 23.2571 41.0947 23.4015 40.7491 23.6903C40.4082 23.9792 40.1501 24.3721 39.9749 24.8693C39.8045 25.3665 39.7192 25.9323 39.7192 26.5667C39.7192 27.2012 39.8045 27.767 39.9749 28.2642C40.1501 28.7613 40.4082 29.1543 40.7491 29.4432C41.0947 29.7273 41.5208 29.8693 42.0275 29.8693Z" fill="white"/>
<path d="M57.1109 17.4545V32H54.0356V17.4545H57.1109Z" fill="white"/>
<path d="M59.5843 32V21.0909H62.4678V23.0156H62.5957C62.8229 22.3764 63.2017 21.8721 63.732 21.5028C64.2623 21.1335 64.8968 20.9488 65.6354 20.9488C66.3835 20.9488 67.0204 21.1359 67.5459 21.5099C68.0715 21.8792 68.4219 22.3811 68.5971 23.0156H68.7107C68.9333 22.3906 69.3357 21.8911 69.9181 21.517C70.5052 21.1382 71.1989 20.9488 71.9991 20.9488C73.0171 20.9488 73.8433 21.2732 74.4778 21.9219C75.117 22.5658 75.4366 23.4796 75.4366 24.6633V32H72.4181V25.2599C72.4181 24.6539 72.2571 24.1993 71.9351 23.8963C71.6132 23.5933 71.2107 23.4417 70.7278 23.4417C70.1785 23.4417 69.75 23.6169 69.4422 23.9673C69.1345 24.313 68.9806 24.7699 68.9806 25.3381V32H66.0474V25.196C66.0474 24.661 65.8935 24.2348 65.5857 23.9176C65.2827 23.6004 64.8826 23.4417 64.3854 23.4417C64.0493 23.4417 63.7462 23.527 63.4763 23.6974C63.2112 23.8631 63.0005 24.0975 62.8442 24.4006C62.688 24.6988 62.6099 25.0492 62.6099 25.4517V32H59.5843Z" fill="white"/>
<path d="M80.9373 32.2059C80.2413 32.2059 79.621 32.0852 79.0765 31.8437C78.532 31.5975 78.1011 31.2353 77.7839 30.7571C77.4714 30.2741 77.3151 29.6728 77.3151 28.9531C77.3151 28.347 77.4264 27.8381 77.6489 27.4261C77.8715 27.0142 78.1745 26.6827 78.558 26.4318C78.9415 26.1809 79.3771 25.9915 79.8648 25.8636C80.3573 25.7358 80.8734 25.6458 81.4131 25.5937C82.0476 25.5274 82.559 25.4659 82.9472 25.4091C83.3355 25.3475 83.6172 25.2576 83.7924 25.1392C83.9676 25.0208 84.0552 24.8456 84.0552 24.6136V24.571C84.0552 24.1212 83.9131 23.7732 83.629 23.527C83.3497 23.2808 82.952 23.1577 82.4359 23.1577C81.8914 23.1577 81.4581 23.2784 81.1361 23.5199C80.8142 23.7566 80.6011 24.0549 80.4969 24.4148L77.6986 24.1875C77.8407 23.5246 78.12 22.9517 78.5367 22.4687C78.9534 21.981 79.4908 21.607 80.1489 21.3466C80.8118 21.0814 81.5788 20.9488 82.4501 20.9488C83.0561 20.9488 83.6361 21.0199 84.1901 21.1619C84.7488 21.304 85.2436 21.5241 85.6745 21.8224C86.1101 22.1207 86.4534 22.5042 86.7043 22.973C86.9553 23.437 87.0807 23.9934 87.0807 24.642V32H84.2114V30.4872H84.1262C83.951 30.8281 83.7166 31.1288 83.4231 31.3892C83.1295 31.6449 82.7768 31.8461 82.3648 31.9929C81.9529 32.1349 81.4771 32.2059 80.9373 32.2059ZM81.8038 30.1179C82.2488 30.1179 82.6418 30.0303 82.9827 29.8551C83.3236 29.6752 83.5912 29.4337 83.7853 29.1307C83.9794 28.8276 84.0765 28.4844 84.0765 28.1008V26.9432C83.9818 27.0047 83.8516 27.0615 83.6859 27.1136C83.5249 27.161 83.3426 27.2059 83.139 27.2486C82.9354 27.2864 82.7318 27.322 82.5282 27.3551C82.3246 27.3835 82.1399 27.4095 81.9742 27.4332C81.6191 27.4853 81.309 27.5682 81.0438 27.6818C80.7787 27.7954 80.5727 27.9493 80.4259 28.1434C80.2791 28.3328 80.2057 28.5696 80.2057 28.8537C80.2057 29.2656 80.3549 29.5805 80.6532 29.7983C80.9562 30.0113 81.3397 30.1179 81.8038 30.1179Z" fill="white"/>
<path d="M94.3428 36.3182C93.3627 36.3182 92.5223 36.1832 91.8215 35.9133C91.1255 35.6482 90.5715 35.286 90.1596 34.8267C89.7476 34.3674 89.4801 33.8513 89.357 33.2784L92.1553 32.902C92.2405 33.1198 92.3755 33.3234 92.5601 33.5128C92.7448 33.7022 92.9886 33.8537 93.2917 33.9673C93.5994 34.0857 93.9735 34.1449 94.4138 34.1449C95.072 34.1449 95.6141 33.9839 96.0403 33.6619C96.4711 33.3447 96.6866 32.812 96.6866 32.0639V30.0682H96.5587C96.4261 30.3712 96.2273 30.6577 95.9621 30.9275C95.697 31.1974 95.3561 31.4176 94.9394 31.5881C94.5227 31.7585 94.0256 31.8437 93.4479 31.8437C92.6288 31.8437 91.8831 31.6543 91.2107 31.2756C90.5431 30.892 90.0104 30.3073 89.6127 29.5213C89.2197 28.7306 89.0232 27.7315 89.0232 26.5241C89.0232 25.2883 89.2244 24.2561 89.6269 23.4275C90.0294 22.5989 90.5644 21.9787 91.232 21.5667C91.9044 21.1548 92.6406 20.9488 93.4408 20.9488C94.0516 20.9488 94.563 21.053 94.9749 21.2613C95.3869 21.4649 95.7183 21.7206 95.9692 22.0284C96.2249 22.3314 96.4214 22.6297 96.5587 22.9233H96.6724V21.0909H99.6766V32.1065C99.6766 33.0345 99.4494 33.8111 98.9948 34.4361C98.5403 35.0611 97.9105 35.5298 97.1056 35.8423C96.3054 36.1595 95.3845 36.3182 94.3428 36.3182ZM94.4067 29.571C94.8944 29.571 95.3064 29.4503 95.6425 29.2088C95.9834 28.9626 96.2439 28.6122 96.4238 28.1577C96.6084 27.6984 96.7008 27.1491 96.7008 26.5099C96.7008 25.8707 96.6108 25.3167 96.4309 24.848C96.251 24.3745 95.9905 24.0076 95.6496 23.7471C95.3087 23.4867 94.8944 23.3565 94.4067 23.3565C93.9096 23.3565 93.4905 23.4915 93.1496 23.7613C92.8087 24.0265 92.5507 24.3958 92.3755 24.8693C92.2003 25.3428 92.1127 25.8897 92.1127 26.5099C92.1127 27.1397 92.2003 27.6842 92.3755 28.1434C92.5554 28.598 92.8135 28.9507 93.1496 29.2017C93.4905 29.4479 93.9096 29.571 94.4067 29.571Z" fill="white"/>
<path d="M107.056 32.2131C105.934 32.2131 104.968 31.9858 104.158 31.5312C103.353 31.072 102.733 30.4233 102.297 29.5852C101.862 28.7424 101.644 27.7457 101.644 26.5952C101.644 25.473 101.862 24.4881 102.297 23.6406C102.733 22.7931 103.346 22.1326 104.137 21.6591C104.932 21.1856 105.865 20.9488 106.935 20.9488C107.655 20.9488 108.325 21.0649 108.945 21.2969C109.57 21.5241 110.115 21.8674 110.579 22.3267C111.047 22.786 111.412 23.3636 111.672 24.0596C111.933 24.7509 112.063 25.5606 112.063 26.4886V27.3196H102.851V25.4446H109.215C109.215 25.009 109.12 24.6231 108.931 24.2869C108.741 23.9507 108.479 23.688 108.143 23.4986C107.811 23.3044 107.425 23.2074 106.985 23.2074C106.526 23.2074 106.118 23.3139 105.763 23.527C105.413 23.7353 105.138 24.017 104.939 24.3721C104.741 24.7225 104.639 25.1131 104.634 25.544V27.3267C104.634 27.8665 104.733 28.3328 104.932 28.7258C105.136 29.1188 105.422 29.4219 105.792 29.6349C106.161 29.848 106.599 29.9545 107.106 29.9545C107.442 29.9545 107.75 29.9072 108.029 29.8125C108.308 29.7178 108.547 29.5757 108.746 29.3863C108.945 29.197 109.097 28.9649 109.201 28.6903L111.999 28.875C111.857 29.5473 111.566 30.1345 111.125 30.6363C110.69 31.1335 110.126 31.5218 109.435 31.8011C108.749 32.0757 107.956 32.2131 107.056 32.2131Z" fill="white"/>
</svg>
